<!DOCTYPE svg PUBLIC "-//W3C//DTD SVG 1.1//EN" "http://www.w3.org/Graphics/SVG/1.1/DTD/svg11.dtd" [
	<!ENTITY ns_flows "http://ns.adobe.com/Flows/1.0/">
]><svg xmlns="http://www.w3.org/2000/svg" width="298" height="420" viewBox="0 0 298 420"><style type="text/css"><![CDATA[
	.st0{fill:#E44D26;}
	.st1{fill:#EBEBEB;}
	.st2{fill:#F16529;}
	.st3{fill:#FFFFFF;}
]]></style><path class="st0" d="M27 386L0 82h298l-27 304-122 34z"/><path class="st2" d="M149 393.84l98.48-27.3L270.68 107H149z"/><path id="_x35__1_" class="st3" d="M55.452 144.617l3.33 37 3.67 38.36h-.022l3.085 36.64H194.81l-4.332 48.923-41.642 11.227-41.548-11.204-2.656-29.946h-37.45l5.226 58.726 76.392 21.26 76.55-21.26 10.24-114.726-135.63.064-3.408-37.783 142.4-.044.003-.02h.027l3.342-37.216z"/><path class="st1" d="M149 219.658l-49.04.023-3.408-37.783L149 181.88v-37.2H55.78l10.063 112 83.157-.063zM148.836 316.767l-41.22-11.14-2.657-29.708H67.51l5.226 58.487 76.064 21.195z"/><path d="M25.784 0h18.96v18.492h17.342V0h18.96v55.68h-18.96V37.25H44.742V55.68H25.785V0zM107.735 18.57h-16.69V0h52.35v18.57h-16.7v37.11h-18.958l-.002-37.11zM153.393 0h19.768l12.163 19.676L197.47 0h19.776v55.68h-18.882V28.244l-13.042 19.91h-.328l-13.052-19.91V55.68h-18.55V0zM227.247 0h18.964v37.68h26.662v18h-45.625V0z"/></svg>